<svg xmlns="http://www.w3.org/2000/svg" width="140" height="140" viewBox="0 0 140 140"><defs><clipPath id="9tnfa"><path fill="#fff" d="M0 140V0h140v140zm4.996-70c0 35.9 29.103 65.004 65.004 65.004 35.9 0 65.004-29.103 65.004-65.004C135.004 34.1 105.9 4.996 70 4.996 34.1 4.996 4.996 34.099 4.996 70z"/></clipPath></defs><g><g><path fill="#fff" d="M70 4.996c35.9 0 65.004 29.103 65.004 65.004 0 35.9-29.103 65.004-65.004 65.004C34.1 135.004 4.996 105.9 4.996 70 4.996 34.1 34.1 4.996 70 4.996z"/><path fill="none" stroke="#fff" stroke-linecap="round" stroke-linejoin="round" stroke-miterlimit="50" stroke-width="10" d="M70 4.996c35.9 0 65.004 29.103 65.004 65.004 0 35.9-29.103 65.004-65.004 65.004C34.1 135.004 4.996 105.9 4.996 70 4.996 34.1 34.1 4.996 70 4.996z" clip-path="url(&quot;#9tnfa&quot;)"/></g><g><path fill="#fff" d="M70 10c33.137 0 60 26.863 60 60s-26.863 60-60 60-60-26.863-60-60 26.863-60 60-60z"/></g><g><path fill="#c8535a" d="M94.83 49.092l-4.18-4.18-11.445 11.445 4.18 4.18zm5.312 1.758l-50.234 50.234c-.469.469-1.094.703-1.758.703-.664 0-1.289-.234-1.758-.703l-7.734-7.735c-.469-.468-.703-1.093-.703-1.757 0-.664.234-1.29.703-1.758l50.234-50.235c.47-.468 1.094-.703 1.758-.703.664 0 1.29.235 1.758.703l7.734 7.735c.47.469.703 1.093.703 1.758 0 .664-.234 1.289-.703 1.758zM51.9 42.84l-3.828 1.173-1.172 3.828-1.172-3.828L41.9 42.84l3.828-1.171 1.172-3.828 1.172 3.828zm17.5 7.5l-7.656 2.344-2.344 7.657-2.344-7.657-7.656-2.343 7.656-2.344 2.344-7.656 2.344 7.656zm32.5 17.5l-3.828 1.172-1.172 3.829-1.172-3.829-3.828-1.171 3.828-1.172 1.172-3.828 1.172 3.828zm-25-25l-3.828 1.173-1.172 3.828-1.172-3.828L66.9 42.84l3.828-1.171 1.172-3.828 1.172 3.828z"/></g></g></svg>