<svg xmlns="http://www.w3.org/2000/svg" width="140" height="140" viewBox="0 0 140 140"><defs><clipPath id="giuqa"><path fill="#fff" d="M0 140V0h140v140zm4.996-70c0 35.9 29.103 65.004 65.004 65.004 35.9 0 65.004-29.103 65.004-65.004C135.004 34.1 105.9 4.996 70 4.996 34.1 4.996 4.996 34.099 4.996 70z"/></clipPath></defs><g><g><path fill="#fff" d="M70 4.996c35.9 0 65.004 29.103 65.004 65.004 0 35.9-29.103 65.004-65.004 65.004C34.1 135.004 4.996 105.9 4.996 70 4.996 34.1 34.1 4.996 70 4.996z"/><path fill="none" stroke="#fff" stroke-linecap="round" stroke-linejoin="round" stroke-miterlimit="50" stroke-width="10" d="M70 4.996c35.9 0 65.004 29.103 65.004 65.004 0 35.9-29.103 65.004-65.004 65.004C34.1 135.004 4.996 105.9 4.996 70 4.996 34.1 34.1 4.996 70 4.996z" clip-path="url(&quot;#giuqa&quot;)"/></g><g><path fill="#fff" d="M70 10c33.137 0 60 26.863 60 60s-26.863 60-60 60-60-26.863-60-60 26.863-60 60-60z"/></g><g><path fill="#c8535a" d="M57.747 60.062c-5.508 0-10 4.492-10 10 0 5.507 4.492 10 10 10s10-4.493 10-10c0-5.508-4.492-10-10-10zm35 25c-2.734 0-5 2.265-5 5 0 2.773 2.266 5 5 5 2.773 0 5-2.266 5-5 0-2.735-2.266-5-5-5zm0-40c-2.734 0-5 2.265-5 5 0 2.773 2.266 5 5 5 2.773 0 5-2.266 5-5 0-2.735-2.266-5-5-5zm-10 28.672c0 .507-.39 1.093-.898 1.171l-6.055.938c-.313 1.015-.742 1.992-1.25 2.969 1.094 1.562 2.265 3.007 3.516 4.492.156.234.273.468.273.781 0 .273-.078.547-.273.742-.782 1.055-5.157 5.82-6.29 5.82-.312 0-.585-.117-.82-.273l-4.492-3.516c-.977.508-1.953.899-3.008 1.211-.195 1.992-.39 4.141-.898 6.055-.157.547-.625.938-1.172.938h-7.266c-.547 0-1.094-.43-1.172-.977l-.898-5.977c-1.016-.312-1.992-.742-2.93-1.21l-4.61 3.476c-.194.195-.507.273-.78.273a1.26 1.26 0 0 1-.82-.312c-1.016-.938-5.626-5.117-5.626-6.25 0-.273.117-.508.274-.742 1.133-1.484 2.304-2.93 3.437-4.453-.547-1.055-1.015-2.11-1.367-3.203l-5.937-.938c-.547-.078-.938-.586-.938-1.133V66.39c0-.508.39-1.094.898-1.172l6.055-.938c.313-1.015.742-1.992 1.25-2.968-1.094-1.563-2.265-3.008-3.515-4.493-.157-.234-.274-.507-.274-.78 0-.274.078-.548.274-.782.78-1.055 5.156-5.781 6.289-5.781.312 0 .586.117.82.273l4.492 3.516a20.363 20.363 0 0 1 3.008-1.25c.195-1.954.39-4.102.898-6.016.157-.547.625-.937 1.172-.937h7.266c.547 0 1.094.43 1.172.976l.898 5.977c1.016.312 1.992.742 2.93 1.21l4.61-3.476c.234-.195.507-.273.78-.273.313 0 .586.117.82.312 1.016.938 5.626 5.156 5.626 6.25 0 .274-.117.508-.274.742-1.132 1.524-2.304 2.93-3.398 4.453.508 1.055.977 2.11 1.328 3.203l5.938.9c.546.116.937.624.937 1.17zm25 19.062c0 .586-5.04 1.133-5.82 1.21a9.491 9.491 0 0 1-1.172 2.032c.351.782 1.992 4.687 1.992 5.39 0 .118-.039.196-.156.274-.469.274-4.649 2.774-4.844 2.774-.508 0-3.437-3.907-3.828-4.493-.39.04-.781.079-1.172.079-.39 0-.781-.04-1.172-.079-.39.586-3.32 4.493-3.828 4.493-.195 0-4.375-2.5-4.844-2.774a.338.338 0 0 1-.156-.273c0-.664 1.64-4.61 1.992-5.39a9.49 9.49 0 0 1-1.172-2.032c-.78-.078-5.82-.625-5.82-1.211v-5.469c0-.586 5.04-1.133 5.82-1.21a10.54 10.54 0 0 1 1.172-2.032c-.351-.781-1.992-4.726-1.992-5.39 0-.079.04-.196.156-.274.469-.235 4.649-2.734 4.844-2.734.508 0 3.438 3.867 3.828 4.453.39-.04.781-.078 1.172-.078.39 0 .781.039 1.172.078 1.094-1.524 2.266-3.047 3.594-4.375l.234-.078c.195 0 4.375 2.46 4.844 2.734a.339.339 0 0 1 .156.273c0 .703-1.64 4.61-1.992 5.391.469.625.86 1.328 1.172 2.031.781.078 5.82.625 5.82 1.211zm0-40c0 .586-5.04 1.133-5.82 1.211a9.489 9.489 0 0 1-1.172 2.031c.351.781 1.992 4.688 1.992 5.39 0 .118-.039.196-.156.274-.469.274-4.649 2.773-4.844 2.773-.508 0-3.437-3.906-3.828-4.492-.39.04-.781.079-1.172.079-.39 0-.781-.04-1.172-.079-.39.586-3.32 4.492-3.828 4.492-.195 0-4.375-2.5-4.844-2.773a.339.339 0 0 1-.156-.273c0-.664 1.64-4.61 1.992-5.391a9.489 9.489 0 0 1-1.172-2.031c-.78-.078-5.82-.625-5.82-1.211v-5.469c0-.586 5.04-1.133 5.82-1.21a10.54 10.54 0 0 1 1.172-2.032c-.351-.781-1.992-4.727-1.992-5.39 0-.079.04-.196.156-.274.469-.234 4.649-2.734 4.844-2.734.508 0 3.438 3.867 3.828 4.453.39-.04.781-.078 1.172-.078.39 0 .781.039 1.172.078 1.094-1.524 2.266-3.047 3.594-4.375l.234-.078c.195 0 4.375 2.46 4.844 2.734a.339.339 0 0 1 .156.273c0 .703-1.64 4.61-1.992 5.391.469.625.86 1.328 1.172 2.031.781.078 5.82.625 5.82 1.211z"/></g></g></svg>