<svg xmlns="http://www.w3.org/2000/svg" width="28" height="27" viewBox="0 0 28 27"><g><g><path fill="#fff" d="M6.543 9.298H.65V26.99h5.892zm.375-5.463C6.9 2.104 5.65.782 3.633.782c-2 0-3.32 1.322-3.32 3.053 0 1.696 1.267 3.053 3.249 3.053h.035c2.053 0 3.339-1.357 3.32-3.053zM27.734 16.85c0-5.427-2.892-7.963-6.766-7.963-3.13 0-4.527 1.714-5.302 2.926V9.298H9.792s.072 1.66 0 17.692h5.874v-9.872c0-.536.053-1.054.196-1.447.429-1.053 1.393-2.142 3.017-2.142 2.125 0 2.982 1.625 2.982 4v9.461h5.873z"/></g></g></svg>