<svg xmlns="http://www.w3.org/2000/svg" width="140" height="140" viewBox="0 0 140 140"><defs><clipPath id="7jy8a"><path fill="#fff" d="M0 140V0h140v140zm4.996-70c0 35.9 29.103 65.004 65.004 65.004 35.9 0 65.004-29.103 65.004-65.004C135.004 34.1 105.9 4.996 70 4.996 34.1 4.996 4.996 34.099 4.996 70z"/></clipPath></defs><g><g><path fill="#fff" d="M70 4.996c35.9 0 65.004 29.103 65.004 65.004 0 35.9-29.103 65.004-65.004 65.004C34.1 135.004 4.996 105.9 4.996 70 4.996 34.1 34.1 4.996 70 4.996z"/><path fill="none" stroke="#fff" stroke-linecap="round" stroke-linejoin="round" stroke-miterlimit="50" stroke-width="10" d="M70 4.996c35.9 0 65.004 29.103 65.004 65.004 0 35.9-29.103 65.004-65.004 65.004C34.1 135.004 4.996 105.9 4.996 70 4.996 34.1 34.1 4.996 70 4.996z" clip-path="url(&quot;#7jy8a&quot;)"/></g><g><path fill="#fff" d="M70 10c33.137 0 60 26.863 60 60s-26.863 60-60 60-60-26.863-60-60 26.863-60 60-60z"/></g><g><path fill="#c8535a" d="M92.75 50.5a3.75 3.75 0 0 1-7.5 0 3.75 3.75 0 0 1 7.5 0zm8.75-11.25c0-.703-.625-1.25-1.328-1.25-13.594 0-21.055 3.125-30.82 12.851-2.227 2.266-4.532 4.844-6.875 7.618l-14.805.78c-.39.04-.781.274-1.016.626l-8.75 15c-.273.469-.195 1.094.195 1.523l2.5 2.5c.235.235.586.352.899.352.117 0 .234 0 .352-.04l10.78-3.32L63.61 86.867l-3.32 10.781c-.117.43 0 .899.313 1.25l2.5 2.5c.273.235.585.352.898.352.234 0 .43-.04.625-.156l15-8.75c.352-.235.586-.625.625-1.016l.781-14.805c2.774-2.344 5.352-4.648 7.617-6.875 9.258-9.296 12.852-17.93 12.852-30.898z"/></g></g></svg>