<svg xmlns="http://www.w3.org/2000/svg" width="28" height="24" viewBox="0 0 28 24"><g><g><path fill="#fff" d="M28.234 3.424a11.54 11.54 0 0 1-3.32.892 5.75 5.75 0 0 0 2.534-3.177 11.35 11.35 0 0 1-3.66 1.392 5.752 5.752 0 0 0-4.213-1.82 5.764 5.764 0 0 0-5.766 5.766c0 .446.053.892.143 1.32a16.389 16.389 0 0 1-11.89-6.033 5.724 5.724 0 0 0-.786 2.91c0 2 1.018 3.767 2.571 4.802a5.804 5.804 0 0 1-2.607-.732v.072a5.767 5.767 0 0 0 4.624 5.659c-.482.125-1 .197-1.517.197-.375 0-.732-.036-1.09-.09a5.776 5.776 0 0 0 5.392 3.999 11.548 11.548 0 0 1-7.158 2.464c-.483 0-.929-.018-1.393-.071a16.297 16.297 0 0 0 8.855 2.588c10.605 0 16.407-8.783 16.407-16.406 0-.25 0-.5-.018-.75a12.394 12.394 0 0 0 2.892-2.982z"/></g></g></svg>